# xmcd
#
# Track frame offsets:
#	207
#	11762
#	23142
#	36395
#	48085
#	59527
#	72295
#	85482
#	99690
#	115370
#	125477
#	136595
#	147555
#	159550
#	173147
#	185467
#	195990
#	209010
#	220885
#	234682
#
# Disc length: 3288 seconds
#
# Revision: 3
# Processed by: cddbd v1.5.2PL0 Copyright (c) Steve Scherf et al.
# Submitted via: audiograbber 1.83.01
#
DISCID=2b0cd614
DTITLE=Johnny Shines and Robert Lockwood - Johnny Shines and Robert Lockwood featur
DTITLE=ing Sunnyland Slim in Piano
DYEAR=1955
DGENRE=Blues
TTITLE0=Johnny Shines - Ramblin'
TTITLE1=Johnny Shines - Fish Tail
TTITLE2=Johnny Shines - Cool Driver
TTITLE3=Johnny Shines - Ain't Doin No Good
TTITLE4=Johnny Shines - Evening Sun
TTITLE5=Johnny Shines - No Name Blues
TTITLE6=Johnny Shines - Brutal Hearted Woman
TTITLE7=Johnny Shines - Gonna Call The Angel
TTITLE8=Johnny Shines - Gonna Call The Angel
TTITLE9=Johnny Shines - Evening Shuffle
TTITLE10=Robert  Lockwood - Dust My Broom
TTITLE11=Robert  Lockwood - Pearly B
TTITLE12=Robert  Lockwood - Aw Aw Baby
TTITLE13=Robert  Lockwood - Sweet Woman From Maine
TTITLE14=Robert  Lockwood - You've Got To Stop this Mess
TTITLE15=Robert  Lockwood - Glad I Don't Worry No More
TTITLE16=Robert  Lockwood - Down Home Child
TTITLE17=Robert  Lockwood - Sunny Land Special
TTITLE18=Robert  Lockwood - Leaving Your Town
TTITLE19=Robert  Lockwood - Dust My Broom (Alt.)
EXTD=JOB recordings form 1952 though 1955\n
EXTT0=Shines, Johnny
EXTT1=Shines, Johnny
EXTT2=Shines, Johnny
EXTT3=Shines, Johnny
EXTT4=Shines, Johnny
EXTT5=Shines, Johnny
EXTT6=Shines, Johnny
EXTT7=Shines, Johnny
EXTT8=Shines, Johnny
EXTT9=Shines, Johnny
EXTT10=Lockwood, Robert
EXTT11=
EXTT12=
EXTT13=
EXTT14=
EXTT15=
EXTT16=
EXTT17=
EXTT18=
EXTT19=
PLAYORDER=
